<svg id="Layer_1" data-name="Layer 1" xmlns="http://www.w3.org/2000/svg" viewBox="0 0 1000 1000"><defs><style>.cls-1{fill:#252830;}.cls-1,.cls-2{stroke:#bdc3c7;stroke-linejoin:round;stroke-width:6px;}.cls-1,.cls-2,.cls-3,.cls-4,.cls-5,.cls-6,.cls-7,.cls-8{stroke-linecap:round;}.cls-2,.cls-3,.cls-4,.cls-5,.cls-6,.cls-7,.cls-8{fill:none;}.cls-3,.cls-6{stroke:#0984e3;}.cls-3,.cls-4,.cls-5,.cls-6,.cls-7,.cls-8{stroke-miterlimit:8.192;}.cls-3,.cls-4,.cls-5{stroke-width:6.554px;opacity:0.5;isolation:isolate;}.cls-4,.cls-7{stroke:#c0392b;}.cls-5,.cls-8{stroke:#2ecc71;}.cls-6,.cls-7,.cls-8{stroke-width:9px;}.cls-9{fill:#bdc3c7;}</style></defs><polygon class="cls-1" points="155.07 699.101 68.957 252.414 498.86 103.641 928.763 252.414 842.659 699.101 498.86 997.025 155.07 699.101"/><polygon class="cls-2" points="498.972 785.709 286.038 623.046 253.876 357.034 501.209 253.955 747.666 359.111 713.267 624.843 498.972 785.709"/><polygon class="cls-2" points="500.091 281.307 283.893 375.798 310.166 610.268 500.091 750.257 690.015 610.268 716.278 375.798 500.091 281.307"/><line class="cls-2" x1="253.194" y1="358.071" x2="70.188" y2="252.414"/><line class="cls-2" x1="500.091" y1="785.711" x2="500.091" y2="997.025"/><line class="cls-2" x1="746.987" y1="358.071" x2="929.994" y2="252.414"/><line class="cls-3" x1="500.091" y1="500.969" x2="500.091" y2="681.265"/><line class="cls-4" x1="500.398" y1="500.442" x2="656.536" y2="410.289"/><line class="cls-5" x1="499.783" y1="500.442" x2="343.635" y2="410.289"/><polyline class="cls-6" points="500.091 500.969 500.091 281.307 500.091 253.953 500.091 103.641 500.091 4.475"/><polyline class="cls-7" points="500.398 500.442 310.166 610.268 286.474 623.945 156.291 699.101 70.624 748.987"/><polyline class="cls-8" points="499.783 500.442 690.015 610.268 713.707 623.945 843.88 699.101 929.547 748.987"/><path class="cls-9" d="M500.091,500.611h0m0-7.94a7.94,7.94,0,1,0,7.94,7.94,7.938,7.938,0,0,0-7.94-7.94Z"/></svg>