<svg id="Layer_1" data-name="Layer 1" xmlns="http://www.w3.org/2000/svg" viewBox="0 0 100 100"><defs><style>.cls-1{fill:#252830;}.cls-1,.cls-2{stroke:#bdc3c7;stroke-linejoin:round;stroke-width:3px;}.cls-1,.cls-2,.cls-3,.cls-4,.cls-5,.cls-6,.cls-7,.cls-8{stroke-linecap:round;}.cls-2,.cls-3,.cls-4,.cls-5,.cls-6,.cls-7,.cls-8{fill:none;}.cls-3,.cls-6{stroke:#0984e3;}.cls-3,.cls-4,.cls-5,.cls-6,.cls-7,.cls-8{stroke-miterlimit:8.192;stroke-width:4px;}.cls-3,.cls-4,.cls-5{opacity:0.5;isolation:isolate;}.cls-4,.cls-7{stroke:#c0392b;}.cls-5,.cls-8{stroke:#2ecc71;}</style></defs><polygon class="cls-1" points="16.454 69.531 8.088 26.106 49.882 11.64 91.676 26.106 83.31 69.531 49.882 98.5 16.454 69.531"/><polygon class="cls-2" points="49.998 77.955 29.231 62.225 25.998 36.383 49.998 26.25 74.007 36.383 70.765 62.225 49.998 77.955"/><polygon class="cls-2" points="49.998 28.914 28.98 38.1 31.538 60.894 49.998 74.51 68.468 60.894 71.015 38.1 49.998 28.914"/><line class="cls-2" x1="25.998" y1="36.383" x2="8.204" y2="26.106"/><line class="cls-2" x1="49.998" y1="77.955" x2="49.998" y2="98.5"/><line class="cls-2" x1="74.007" y1="36.383" x2="91.792" y2="26.106"/><line class="cls-3" x1="49.998" y1="50.269" x2="49.998" y2="67.803"/><line class="cls-4" x1="50.027" y1="50.221" x2="65.206" y2="41.459"/><line class="cls-5" x1="49.969" y1="50.221" x2="34.789" y2="41.459"/><polyline class="cls-6" points="49.998 50.269 49.998 28.914 49.998 26.25 49.998 11.64 49.998 2"/><polyline class="cls-7" points="50.027 50.221 31.538 60.894 29.231 62.225 16.57 69.531 8.242 74.384"/><polyline class="cls-8" points="49.969 50.221 68.468 60.894 70.765 62.225 83.426 69.531 91.753 74.384"/></svg>